<mxfile host="app.diagrams.net" modified="2024-05-30T19:43:35.771Z" agent="Mozilla/5.0 (Windows NT 10.0; Win64; x64) AppleWebKit/537.36 (KHTML, like Gecko) Chrome/125.0.0.0 Safari/537.36" version="24.4.10" etag="sIft5W__-6ZEqSvETUkF" type="github">
  <diagram name="PÃ¡gina-1" id="W1gy9AS4F44jfw_UCVMB">
    <mxGraphModel>
      <root>
        <mxCell id="0" />
        <mxCell id="1" parent="0" />
      </root>
    </mxGraphModel>
  </diagram>
</mxfile>
